<?xml version="1.0" encoding="utf-8" ?>
<svg xmlns="http://www.w3.org/2000/svg" xmlns:xlink="http://www.w3.org/1999/xlink" width="126" height="126">
	<defs>
		<linearGradient id="gradient_0" gradientUnits="userSpaceOnUse" x1="202.44223" y1="486.31848" x2="434.9505" y2="140.15321">
			<stop offset="0" stop-color="#459DFF"/>
			<stop offset="1" stop-color="#FFFFFE"/>
		</linearGradient>
	</defs>
	<path fill="url(#gradient_0)" transform="scale(0.198125 0.198125)" d="M137.42 213.129C153.898 175.849 198.879 139.226 235.677 125.033C280.956 107.569 327.986 103.651 375.077 115.11C433.448 129.315 486.953 171.758 508.749 228.582C527.853 278.388 533.771 309.262 521.309 360.148C513.136 393.52 503.757 414.052 481.586 441.034C479.69 443.34 477.361 446.846 474.983 448.538C467.168 457.051 451.433 470.146 445.811 477.595C414.129 500.953 376.556 517.801 337.235 522.037C225.409 534.082 117.468 441.985 110.202 329.951C107.568 289.345 118.675 248.916 137.42 213.129ZM314.172 136.875L313.577 136.953C301.596 138.456 286.797 135.853 276.535 143.607L274.294 140.469C270.121 141.972 266.335 144.152 262.399 146.15L258.502 146.15C253.973 148.011 249.789 149.485 245.489 151.943C239.226 151.264 239.527 153.312 235.045 156.132C233.322 156.089 231.605 156.035 229.882 156.132L228.834 159.16C227.911 159.155 226.59 158.968 225.715 159.16C224.781 160.316 223.863 161.493 222.891 162.619L218.459 162.619C217.325 163.919 216.643 165.469 215.878 167.002L212.52 167.002L211.28 170.703C204.724 171.633 208.053 174.699 202.924 175.04C201.959 176.747 201.039 178.29 199.732 179.766C199.405 183.852 196.917 181.824 195.028 184.041C194.757 188.099 190.877 185.61 190.62 189.788C189.589 190.698 188.19 190.6 187.509 191.77C187.672 196.572 185.479 193.277 184.395 195.327C183.212 197.565 185.084 199.131 181.713 200.517C180.665 200.948 179.128 201.07 178.507 202.001C178.4 209.245 175.113 201.775 175.275 209.754C171.932 210.839 172.044 211.4 172.246 214.797C170.637 215.23 169.166 216.196 167.863 217.218C167.569 218.994 167.228 220.772 167.059 222.565C163.481 223.216 163.606 226.133 161.243 228.406L161.243 232.052C159.07 233.703 158.817 234.409 159.741 236.974C156.955 240.452 158.326 237.118 155.395 243.749C154.123 245.504 153.686 247.66 153.151 249.729C151.309 251.002 151.53 251.86 152.317 253.798L152.185 254.489C151.637 254.677 151.091 254.845 150.533 254.998L148.778 257.654C149 258.125 150.64 260.866 149.859 260.96C153.387 264.425 162.835 269.24 162.742 270.553C162.605 272.467 160.979 273.997 161.243 276.014L161.243 276.014C161.247 277.248 161.261 278.483 161.243 279.717C160.092 282.317 158.973 284.919 157.916 287.559L157.916 287.559C160.277 290.564 158.026 295.835 156.283 298.671C159.265 304.363 157.482 308.005 153.151 311.908C154.06 311.87 154.821 311.726 155.686 311.408L156.072 311.64C156.161 312.189 156.243 312.716 156.283 313.271C156.816 313.747 157.327 314.189 157.916 314.596L156.283 318.118C156.847 319.268 157.448 320.412 157.916 321.605C149.437 333.363 163.299 322.763 157.101 335.174L156.283 336.833C165.217 341.348 154.504 347.639 162.2 352.012C162.784 353.205 162.393 354.368 162.185 355.652C164 357.792 163.893 358.167 163.161 360.735C169.873 366.18 164.003 365.661 164.788 369.813L165.5 369.829L165.147 369.969C168.332 371.315 167.859 374.436 170.478 376.575L169.435 379.43C173.922 384.399 168.4 381.847 174.495 386.926C175.74 387.964 176.403 390.453 178.939 392.493C178.745 394.725 178.429 397.028 178.531 399.265L178.826 399.245C183.161 398.973 187.683 408.699 189.444 412.074C188.775 413.007 188.046 413.918 187.611 414.987C189.341 414.522 189.333 413.98 191.043 414.987C193.605 416.397 203.043 425.557 201.804 429.866C202.743 430.102 203.679 429.506 204.812 429.788C208.27 432.413 215.277 438.39 218.057 441.277C218.861 442.111 219.359 444.967 220.105 445.318C223.282 446.813 223.786 445.434 227.37 448.538C233.074 451.866 248.429 460.606 251.537 463.595C255.359 463.383 256.214 464.555 259.279 466.422C259.146 467.398 258.806 468.316 258.502 469.25C259.788 468.288 261.067 467.32 262.399 466.422L269.236 469.25C270.599 469.78 271.869 470.083 273.312 470.314C283.214 471.78 293.516 474.55 303.123 475.86C308.532 476.597 311.029 474.604 316.379 477.595C318.782 477.57 321.029 479.596 323.163 477.595C324.96 474.704 327.201 476.188 329.613 477.595C334.906 474.262 342.242 472.818 348.512 472.683C349.539 472.773 350.507 472.745 351.536 472.683C354.882 471.234 357.701 470.731 361.323 470.314C362.627 470.063 363.813 469.709 365.059 469.25C367.582 468.4 369.882 467.582 372.579 467.585C373.768 466.937 374.876 466.076 375.992 465.306C385.166 461.262 390.697 458.773 399.691 453.55C400.649 452.793 401.636 452.072 402.612 451.34C406.421 449.008 420.449 439.493 423.327 436.836C423.321 434.755 435.674 426.653 436.357 423.376C437.845 422.662 439.143 421.596 440.69 421.02C441.561 419.438 442.556 416.104 443.925 415.056C446.511 414.92 445.962 413.234 445.811 411.087L448.699 410.029C450.876 404.991 452.628 401.164 457.416 398.403C457.05 394.203 459.98 393.099 461.23 389.645C462.997 384.766 463.789 384.959 464.537 383C466.924 376.749 464.108 376.67 469.702 374.51L468.844 372.513C468.798 371.575 469.338 370.956 469.833 370.21C472.898 365.585 468.347 364.229 474.142 359.024C473.886 352.256 476.43 349.483 476.811 343.838C477.077 339.889 481.578 345.436 476.261 336.833C477.634 335.35 479.134 334.139 480.722 332.897L477.611 328.783C479.104 327.215 480.993 326.048 482.781 324.84C476.123 320.388 478.137 319.664 481.446 313.271C479.847 311.395 478.454 309.601 477.611 307.252C478.802 305.268 480.064 303.401 481.446 301.546C477.177 297.379 476.723 296.204 481.446 292.487C476.114 289.182 476.371 286.746 474.983 281.128L475.218 280.479C478.668 280.939 489.289 277.455 493.602 276.941C493.266 275.088 492.891 273.249 492.809 271.363L492.809 271.363C490.706 265.115 486.568 244.88 480.773 242.841L480.321 242.686C479.699 239.927 482.773 240.618 479.569 236.906C472.423 228.628 469.388 216.161 459.041 205.898C453.818 200.718 454.513 204.547 453.378 198.29C453.364 198.212 438.496 184.865 437.662 184.196C433.767 181.073 431.248 177.472 428.183 175.043C425.43 172.861 417.989 166.961 415.423 165.17C402.592 156.214 370.947 142.361 355.312 140.477C345.6 139.306 347.279 142.553 338.496 136.875C330.233 138.136 322.41 136.545 314.172 136.875Z"/>
	<path fill="#93C0FE" transform="scale(0.198125 0.198125)" d="M465.284 429.911L465.65 430.08C463.123 433.461 460.721 436.853 457.95 440.049C456.67 441.525 447.536 450.138 449.924 450.743C452.69 451.444 461.213 457.373 462.306 460.265L462.676 460.426C464.535 458.636 475.468 449.083 472.855 448.305C470.278 447.538 462.448 439.142 467.556 438.532C464.148 443.513 470.988 446.841 474.983 448.538C467.168 457.051 451.433 470.146 445.811 477.595L445.634 476.824C448.186 472.94 451.009 473.938 444.595 472.267C439.164 470.852 422.284 471.925 416.481 473.751C413.137 474.804 410.4 478.214 406.88 478.681C409.092 476.904 411.944 475.562 414.387 474.072C426.465 466.704 435.757 459.593 447.116 451.34C451.232 454.225 456.241 458.111 461.037 459.542C460.372 457.389 451.023 451.692 448.699 450.439C451.241 446.007 461.237 434.834 465.284 429.911Z"/>
	<path fill="#FDFDFD" transform="scale(0.198125 0.198125)" d="M155.395 228.406C158.495 218.788 168.163 208.18 174.623 200.148C202.85 165.054 224.616 146.111 270.776 136.348C275.981 135.247 281.508 133.411 286.773 132.946C285.27 133.934 275.27 135.758 273.042 136.201C226.465 145.442 195.853 170.77 168.533 207.732C166.577 210.378 159.811 218.836 158.874 220.334C157.402 222.685 156.962 225.559 155.526 227.956C154.275 230.045 151.712 230.407 150.663 232.917C149.695 235.234 150.739 237.797 150.149 240.221L148.802 240.411C144.7 245.29 143.289 252.835 141.178 258.729C134.723 276.758 131.755 296.256 131.37 315.362C131.2 323.753 131.549 345.95 136.142 352.775C137.529 354.836 140.843 364.553 140.3 367.509C140.907 369.062 142.436 369.96 143.386 371.335C143.454 373.71 148.526 387.678 151.608 387.448L151.802 387.04L151.238 386.661L151.697 385.852L152.296 386.185L152.404 385.671C151.817 384.335 151.027 383.211 150.193 382.025L149.89 382.344L149.512 382.197C149.741 376.199 145.032 376.148 147.081 371.954C147.033 371.147 143.86 364.13 143.367 362.992C140.928 357.358 143.065 358.33 142.209 355.535C141.411 352.932 139.042 353.011 140.548 351.788C139.289 342.085 139.416 334.776 139.17 325.386L138.605 308.185C138.546 305.79 139.57 302.826 138.953 300.598C137.964 297.026 141.085 295.625 141.237 292.686C141.283 291.797 140.099 290.721 140.066 289.72C139.976 286.958 142.245 284.033 142.82 281.33C143.792 276.759 142.461 275.251 146.013 271.021C146.664 270.246 145.57 265.748 145.729 264.246C146.283 258.982 149.216 265.761 148.576 256.877C148.539 256.361 158.686 238.142 158.6 233.423C161.419 230.016 161.26 227.637 162.214 226.728C163.487 225.514 163.044 223.76 164.236 222.543C168.316 222.288 166.882 219.672 167.252 216.404C168.72 214.899 171.181 215.426 171.882 213.253C171.605 212.08 171.229 211.254 172.072 210.234C177.174 208.809 173.739 207.717 175.278 205.243C179.035 204.534 177.702 204.855 178.256 201.17C182.999 199.249 182.972 200.431 183.748 195.273C184.581 194.292 186.038 194.339 187.125 193.663L187.177 190.894L187.659 190.447C192.672 189.318 189.694 187.406 191.315 186.607C192.368 186.088 198.863 181.631 198.924 181.556C200.298 179.865 198.543 175.12 204.449 174.565C207.279 174.298 205.501 173.029 206.424 171.446C207.072 170.334 209.729 171.151 210.65 170.135C211.536 169.158 211.405 167.512 212.276 166.622C213.854 165.008 213.428 169.056 217.114 163.359C219.391 159.841 220.964 165.244 224.619 158.609C226.193 157.827 229.507 160.01 229.16 156.378L228.063 155.81C229.984 154.407 233.068 156.403 235.202 155.433C237.042 154.597 238.004 152.19 239.922 151.532C241.55 150.974 243.37 151.816 244.982 151.386C248.513 150.443 255.467 145.492 258.56 145.046C259.789 144.869 261.193 145.798 262.399 145.537C265.83 144.797 268.932 141.603 272.456 140.763C276.092 139.897 273.641 144.246 280.222 140.837C286.066 137.809 307.399 135.893 314.172 136.875L313.577 136.953C301.596 138.456 286.797 135.853 276.535 143.607L274.294 140.469C270.121 141.972 266.335 144.152 262.399 146.15L258.502 146.15C253.973 148.011 249.789 149.485 245.489 151.943C239.226 151.264 239.527 153.312 235.045 156.132C233.322 156.089 231.605 156.035 229.882 156.132L228.834 159.16C227.911 159.155 226.59 158.968 225.715 159.16C224.781 160.316 223.863 161.493 222.891 162.619L218.459 162.619C217.325 163.919 216.643 165.469 215.878 167.002L212.52 167.002L211.28 170.703C204.724 171.633 208.053 174.699 202.924 175.04C201.959 176.747 201.039 178.29 199.732 179.766C199.405 183.852 196.917 181.824 195.028 184.041C194.757 188.099 190.877 185.61 190.62 189.788C189.589 190.698 188.19 190.6 187.509 191.77C187.672 196.572 185.479 193.277 184.395 195.327C183.212 197.565 185.084 199.131 181.713 200.517C180.665 200.948 179.128 201.07 178.507 202.001C178.4 209.245 175.113 201.775 175.275 209.754C171.932 210.839 172.044 211.4 172.246 214.797C170.637 215.23 169.166 216.196 167.863 217.218C167.569 218.994 167.228 220.772 167.059 222.565C163.481 223.216 163.606 226.133 161.243 228.406L161.243 232.052C159.07 233.703 158.817 234.409 159.741 236.974C156.955 240.452 158.326 237.118 155.395 243.749C154.123 245.504 153.686 247.66 153.151 249.729C151.309 251.002 151.53 251.86 152.317 253.798L152.185 254.489C151.637 254.677 151.091 254.845 150.533 254.998L148.778 257.654C149 258.125 150.64 260.866 149.859 260.96C153.387 264.425 162.835 269.24 162.742 270.553C162.605 272.467 160.979 273.997 161.243 276.014L161.243 276.014C161.247 277.248 161.261 278.483 161.243 279.717C160.092 282.317 158.973 284.919 157.916 287.559L157.916 287.559C160.277 290.564 158.026 295.835 156.283 298.671C159.265 304.363 157.482 308.005 153.151 311.908C154.06 311.87 154.821 311.726 155.686 311.408L156.072 311.64C156.161 312.189 156.243 312.716 156.283 313.271C156.816 313.747 157.327 314.189 157.916 314.596L156.283 318.118C156.847 319.268 157.448 320.412 157.916 321.605C149.437 333.363 163.299 322.763 157.101 335.174L156.283 336.833C165.217 341.348 154.504 347.639 162.2 352.012C162.784 353.205 162.393 354.368 162.185 355.652C164 357.792 163.893 358.167 163.161 360.735C169.873 366.18 164.003 365.661 164.788 369.813L165.5 369.829L165.147 369.969C168.332 371.315 167.859 374.436 170.478 376.575L169.435 379.43C173.922 384.399 168.4 381.847 174.495 386.926C175.74 387.964 176.403 390.453 178.939 392.493C178.745 394.725 178.429 397.028 178.531 399.265L178.826 399.245C183.161 398.973 187.683 408.699 189.444 412.074C188.775 413.007 188.046 413.918 187.611 414.987C189.341 414.522 189.333 413.98 191.043 414.987C193.605 416.397 203.043 425.557 201.804 429.866C202.743 430.102 203.679 429.506 204.812 429.788C208.27 432.413 215.277 438.39 218.057 441.277C218.861 442.111 219.359 444.967 220.105 445.318C223.282 446.813 223.786 445.434 227.37 448.538C233.074 451.866 248.429 460.606 251.537 463.595C255.359 463.383 256.214 464.555 259.279 466.422C259.146 467.398 258.806 468.316 258.502 469.25C259.788 468.288 261.067 467.32 262.399 466.422L269.236 469.25C270.599 469.78 271.869 470.083 273.312 470.314C283.214 471.78 293.516 474.55 303.123 475.86C308.532 476.597 311.029 474.604 316.379 477.595C318.782 477.57 321.029 479.596 323.163 477.595C324.96 474.704 327.201 476.188 329.613 477.595C334.906 474.262 342.242 472.818 348.512 472.683C349.539 472.773 350.507 472.745 351.536 472.683C354.882 471.234 357.701 470.731 361.323 470.314C362.627 470.063 363.813 469.709 365.059 469.25C367.582 468.4 369.882 467.582 372.579 467.585C373.768 466.937 374.876 466.076 375.992 465.306C385.166 461.262 390.697 458.773 399.691 453.55C400.649 452.793 401.636 452.072 402.612 451.34C406.421 449.008 420.449 439.493 423.327 436.836C423.321 434.755 435.674 426.653 436.357 423.376C437.845 422.662 439.143 421.596 440.69 421.02C441.561 419.438 442.556 416.104 443.925 415.056C446.511 414.92 445.962 413.234 445.811 411.087L448.699 410.029C450.876 404.991 452.628 401.164 457.416 398.403C457.05 394.203 459.98 393.099 461.23 389.645C462.997 384.766 463.789 384.959 464.537 383C466.924 376.749 464.108 376.67 469.702 374.51L468.844 372.513C468.798 371.575 469.338 370.956 469.833 370.21C472.898 365.585 468.347 364.229 474.142 359.024C473.886 352.256 476.43 349.483 476.811 343.838C477.077 339.889 481.578 345.436 476.261 336.833C477.634 335.35 479.134 334.139 480.722 332.897L477.611 328.783C479.104 327.215 480.993 326.048 482.781 324.84C476.123 320.388 478.137 319.664 481.446 313.271C479.847 311.395 478.454 309.601 477.611 307.252C478.802 305.268 480.064 303.401 481.446 301.546C477.177 297.379 476.723 296.204 481.446 292.487C476.114 289.182 476.371 286.746 474.983 281.128L475.218 280.479C478.668 280.939 489.289 277.455 493.602 276.941C493.266 275.088 492.891 273.249 492.809 271.363C496.802 282.437 494.992 289.559 496.558 298.294C496.869 300.026 499.569 299.977 499.876 301.458C500.423 304.1 498.409 310.989 498.612 314.374C498.792 317.351 500.987 317.804 499.483 321.142C495.929 329.025 494.579 323.936 499.689 329.53C499.434 334.783 496.795 336.994 496.741 339.033C496.701 340.558 497.921 342.302 497.85 343.929C497.742 346.381 495.798 348.944 495.217 351.339C494.342 354.955 495.469 361.521 491.882 364.875C487.154 369.295 490.638 365.741 490.416 370.603C490.378 371.44 482.421 393.64 481.687 395.163C479.163 400.395 476.066 405.225 471.049 408.221L471.163 408.503C472.96 413.1 465.612 421.116 461.81 422.587C458.168 430.426 456.531 429.131 451.705 434.685C445.587 441.725 447.437 441.817 439.053 448.544C430.293 455.571 421.546 462.226 412.032 468.191C409.353 469.871 406.499 471.131 404.294 473.462L403.788 473.46L403.709 473.625L403.378 473.763C401.559 474.54 399.873 475.826 401.682 477.723C403.505 477.668 403.117 476.192 405.672 476.593L405.979 477.062C405.546 477.76 405.124 478.208 404.532 478.762L404.731 478.974C419.144 473.403 433.154 460.119 446.008 451.55C448.726 449.739 449.885 454.376 452.414 453.815C451.62 451.911 447.325 451.722 448.331 449.394C448.372 449.298 462.233 432.641 464.033 430.447C471.973 420.765 478.999 411.51 484.301 400.109C490.23 387.359 495.654 376.67 500.141 363.052C501.399 359.233 504.548 336.185 504.8 336.011L504.699 335.939C506.813 358.212 483.734 407.513 470.467 423.59C468.829 425.575 466.549 427.711 465.284 429.911C461.237 434.834 451.241 446.007 448.699 450.439C451.023 451.692 460.372 457.389 461.037 459.542C456.241 458.111 451.232 454.225 447.116 451.34C435.757 459.593 426.465 466.704 414.387 474.072C411.944 475.562 409.092 476.904 406.88 478.681C372.704 493.524 357.246 501.69 316.77 502.65C311.59 502.773 301.302 503.45 296.637 502.074C295.861 498.715 289.658 500.452 285.517 499.701C279.128 498.544 269.667 496.524 263.624 494.41C244.048 487.563 223.22 476.812 206.801 464.416C145.127 417.851 118.077 343.887 136.89 269.385C138.556 262.788 141.497 256.266 143.53 249.729C145.039 246.676 146.1 241.417 149.307 239.83C150.365 239.306 149.825 235.243 150.101 233.993C150.387 232.699 151.139 231.34 151.698 230.136L155.395 228.406Z"/>
	<path fill="#93C0FE" transform="scale(0.198125 0.198125)" d="M156.283 394.76C155.048 392.537 154.42 388.726 157.916 388.922C157.445 390.848 157.038 392.926 156.283 394.76Z"/>
	<path fill="#C7E0FE" transform="scale(0.198125 0.198125)" d="M378.41 479.84C379.138 479.426 379.962 479.733 380.78 479.84C381.165 480.951 381.576 482.039 382.031 483.123C380.853 483.187 379.5 482.77 378.41 483.123C378.346 482.032 378.392 480.932 378.41 479.84Z"/>
	<path fill="#87B1FE" transform="scale(0.198125 0.198125)" d="M365.059 469.25C367.582 468.4 369.882 467.582 372.579 467.585C374.845 471.323 376.02 476.935 378.41 479.84C378.392 480.932 378.346 482.032 378.41 483.123L378.286 484.147C375.931 485.827 372.39 487.089 369.559 487.638L363.846 489.013C362.172 489.815 360.467 490.675 358.729 491.325C356.59 491.162 354.436 490.842 352.323 491.325C353.79 486.992 352.928 484.005 351.536 479.84L352.323 478.681L351.536 472.683C354.882 471.234 357.701 470.731 361.323 470.314C362.627 470.063 363.813 469.709 365.059 469.25Z"/>
	<path fill="#93C0FE" transform="scale(0.198125 0.198125)" d="M365.059 469.25C365.603 470.825 366.229 472.405 366.577 474.037C365.168 472.992 362.949 471.845 361.917 470.482L361.323 470.314C362.627 470.063 363.813 469.709 365.059 469.25Z"/>
	<path fill="#93C0FE" transform="scale(0.198125 0.198125)" d="M363.846 489.013C364.714 487.448 365.779 486.044 366.577 484.425C367.546 485.517 368.561 486.572 369.559 487.638L363.846 489.013Z"/>
	<path fill="#93C0FE" transform="scale(0.198125 0.198125)" d="M352.323 478.681C353.442 482.241 354.811 489.996 358.729 491.325C356.59 491.162 354.436 490.842 352.323 491.325C353.79 486.992 352.928 484.005 351.536 479.84L352.323 478.681Z"/>
	<path fill="#87B1FE" transform="scale(0.198125 0.198125)" d="M399.691 453.55C400.951 454.298 401.749 454.884 402.612 456.083C399.342 461.839 404.575 465.344 404.705 470.688C404.037 471.429 403.159 471.84 402.612 472.683C400.391 475.896 386.321 482.753 382.031 483.123C381.576 482.039 381.165 480.951 380.78 479.84C379.962 479.733 379.138 479.426 378.41 479.84C376.02 476.935 374.845 471.323 372.579 467.585C373.768 466.937 374.876 466.076 375.992 465.306C385.166 461.262 390.697 458.773 399.691 453.55Z"/>
	<path fill="#93C0FE" transform="scale(0.198125 0.198125)" d="M372.579 467.585C373.768 466.937 374.876 466.076 375.992 465.306C376.776 470.363 379.197 475.009 380.78 479.84C379.962 479.733 379.138 479.426 378.41 479.84C376.02 476.935 374.845 471.323 372.579 467.585Z"/>
	<path fill="#71A3FE" transform="scale(0.198125 0.198125)" d="M198.404 449.712L202.306 449.507L202.073 449.582L201.9 449.282L201.714 449.397C195.17 449.235 199.517 448.831 196.352 446.021C195.693 445.436 193.767 445.208 193.349 444.586C192.518 443.352 193.066 441.772 191.851 440.65C188.497 437.551 196.052 436.055 197.977 434.817C200.048 433.486 201.52 430.753 203.974 430.11C205.6 431.004 217.808 441.313 218.444 442.526C221.327 448.028 216.746 444.115 223.272 446.361C224.449 446.766 225.796 447.969 226.823 448.699L227.37 448.538C233.074 451.866 248.429 460.606 251.537 463.595C255.359 463.383 256.214 464.555 259.279 466.422C259.146 467.398 258.806 468.316 258.502 469.25C259.788 468.288 261.067 467.32 262.399 466.422L269.236 469.25C270.599 469.78 271.869 470.083 273.312 470.314C283.214 471.78 293.516 474.55 303.123 475.86C308.532 476.597 311.029 474.604 316.379 477.595C318.782 477.57 321.029 479.596 323.163 477.595C324.96 474.704 327.201 476.188 329.613 477.595C334.906 474.262 342.242 472.818 348.512 472.683C349.539 472.773 350.507 472.745 351.536 472.683L352.323 478.681L351.536 479.84C352.928 484.005 353.79 486.992 352.323 491.325C349.864 492.974 336.264 494.966 333.701 493.796C332.265 493.14 331.595 491.096 330.956 489.75L330.657 489.845C329.965 491.578 329.104 493.075 328.131 494.658C309.128 498.248 269.337 490.511 251.967 482.762C246.663 480.395 232.485 474.806 228.834 470.314C226.85 470.379 224.875 470.351 222.891 470.314C219.582 464.773 218.243 466.557 217.169 463.595C213.776 462.303 211.587 461.797 211.28 457.777C209.643 457.692 207.987 457.759 206.348 457.777C205.683 451.165 199.327 454.392 202.612 451.206L202.18 450.494C201.094 449.91 199.617 449.867 198.404 449.712Z"/>
	<path fill="#87B1FE" transform="scale(0.198125 0.198125)" d="M269.236 469.25C270.599 469.78 271.869 470.083 273.312 470.314C272.705 471.164 271.624 472.534 270.546 472.671L270.058 472.111C269.951 471.151 269.741 470.441 269.365 469.55L269.236 469.25Z"/>
	<path fill="#93C0FE" transform="scale(0.198125 0.198125)" d="M348.512 472.683C349.539 472.773 350.507 472.745 351.536 472.683L352.323 478.681L351.536 479.84C350.764 477.376 349.893 474.878 348.512 472.683Z"/>
	<defs>
		<linearGradient id="gradient_1" gradientUnits="userSpaceOnUse" x1="155.21274" y1="429.207" x2="191.26308" y2="270.96283">
			<stop offset="0" stop-color="#5298FF"/>
			<stop offset="1" stop-color="#90C3FE"/>
		</linearGradient>
	</defs>
	<path fill="url(#gradient_1)" transform="scale(0.198125 0.198125)" d="M146.747 263.241C147.759 262.447 148.814 261.71 149.859 260.96C153.387 264.425 162.835 269.24 162.742 270.553C162.605 272.467 160.979 273.997 161.243 276.014L161.243 276.014C161.247 277.248 161.261 278.483 161.243 279.717C160.092 282.317 158.973 284.919 157.916 287.559L157.916 287.559C160.277 290.564 158.026 295.835 156.283 298.671C159.265 304.363 157.482 308.005 153.151 311.908C154.06 311.87 154.821 311.726 155.686 311.408L156.072 311.64C156.161 312.189 156.243 312.716 156.283 313.271C156.816 313.747 157.327 314.189 157.916 314.596L156.283 318.118C156.847 319.268 157.448 320.412 157.916 321.605C149.437 333.363 163.299 322.763 157.101 335.174L156.283 336.833C165.217 341.348 154.504 347.639 162.2 352.012C162.784 353.205 162.393 354.368 162.185 355.652C164 357.792 163.893 358.167 163.161 360.735C169.873 366.18 164.003 365.661 164.788 369.813L165.5 369.829L165.147 369.969C168.332 371.315 167.859 374.436 170.478 376.575L169.435 379.43C173.922 384.399 168.4 381.847 174.495 386.926C175.74 387.964 176.403 390.453 178.939 392.493C178.745 394.725 178.429 397.028 178.531 399.265L178.826 399.245C183.161 398.973 187.683 408.699 189.444 412.074C188.775 413.007 188.046 413.918 187.611 414.987C189.341 414.522 189.333 413.98 191.043 414.987C193.605 416.397 203.043 425.557 201.804 429.866C202.743 430.102 203.679 429.506 204.812 429.788C208.27 432.413 215.277 438.39 218.057 441.277C218.861 442.111 219.359 444.967 220.105 445.318C223.282 446.813 223.786 445.434 227.37 448.538L226.823 448.699C225.796 447.969 224.449 446.766 223.272 446.361C216.746 444.115 221.327 448.028 218.444 442.526C217.808 441.313 205.6 431.004 203.974 430.11C201.52 430.753 200.048 433.486 197.977 434.817C196.052 436.055 188.497 437.551 191.851 440.65C193.066 441.772 192.518 443.352 193.349 444.586C193.767 445.208 195.693 445.436 196.352 446.021C199.517 448.831 195.17 449.235 201.714 449.397L201.9 449.282L202.073 449.582L202.306 449.507L198.404 449.712C197.031 449.36 196.549 447.524 195.97 446.38C194.724 445.744 193.383 445.246 192.092 444.705C192.07 443.738 192.087 442.771 192.092 441.805C191.298 440.943 190.368 440.264 189.444 439.55C190.853 438.221 192.231 436.878 193.57 435.479C191.57 436.216 189.586 436.977 187.611 437.779L185.671 435.479C184.655 434.6 183.408 433.938 182.267 433.226C181.148 431.967 178.72 429.715 178.685 427.995C178.516 419.607 174.522 428.93 174.437 419.184C173.145 417.764 170.521 420 169.498 417.039C169.843 414.654 169.438 414.023 167.059 413.496C166.002 411.723 165.065 410.089 164.271 408.175C163.824 406.267 163.303 404.648 162.185 403.017C159.597 402.017 159.396 401.131 158.978 398.403C157.951 397.318 157.136 395.985 156.283 394.76C157.038 392.926 157.445 390.848 157.916 388.922L157.916 388.922C157.097 387.876 155.364 387.751 154.118 387.48C153.888 386.381 153.659 385.458 153.151 384.452C152.601 383.975 152.166 383.415 151.698 382.859C151.326 380.976 150.735 379.409 149.859 377.718C149.062 376.259 148.3 374.121 148.607 372.455C153.746 369.755 142.613 369.809 143.279 359.126C143.362 357.79 144.456 356.11 143.591 354.889L142.675 354.917C140.53 352.818 140.825 348.082 140.382 345.225C139.802 343.296 140.183 340.864 140.382 338.878C139.41 335.201 139.466 330.963 139.062 327.153L139.062 323.856C138.772 322.832 138.87 312.958 139.062 311.908L139.062 309.344C138.671 305.852 138.378 299.661 140.382 296.55C140.948 295.232 141.384 293.839 141.864 292.487L140.382 289.867C140.993 287.184 145.059 272.86 145.779 271.955C147.993 275.719 145.993 266.821 146.747 263.241Z"/>
	<path fill="#E9F4FC" transform="scale(0.198125 0.198125)" d="M139.062 323.856C139.866 324.981 141.232 324.944 141.822 325.876C140.914 326.428 140.063 326.799 139.062 327.153L139.062 323.856Z"/>
	<path fill="#93C0FE" transform="scale(0.198125 0.198125)" d="M139.062 309.344C140.105 309.252 141.254 309.019 142.236 309.452L142.361 309.344L141.847 309.189L142.375 309.365C141.238 310.183 140.125 310.993 139.062 311.908L139.062 309.344Z"/>
	<path fill="#93C0FE" transform="scale(0.198125 0.198125)" d="M141.864 292.487C143.739 295.116 143.295 295.457 140.382 296.55C140.948 295.232 141.384 293.839 141.864 292.487Z"/>
	<path fill="#C7E0FE" transform="scale(0.198125 0.198125)" d="M140.382 338.878C144.601 344.985 140.11 338.577 140.382 345.225C139.802 343.296 140.183 340.864 140.382 338.878Z"/>
	<path fill="#93C0FE" transform="scale(0.198125 0.198125)" d="M182.267 433.226C185.764 431.34 185.775 431.567 185.671 435.479C184.655 434.6 183.408 433.938 182.267 433.226Z"/>
	<path fill="#93C0FE" transform="scale(0.198125 0.198125)" d="M149.859 377.718C153.136 378.527 155.214 380.341 151.698 382.859C151.326 380.976 150.735 379.409 149.859 377.718Z"/>
	<path fill="#93C0FE" transform="scale(0.198125 0.198125)" d="M162.185 403.017C167.164 401.883 166.843 405.227 164.271 408.175C163.824 406.267 163.303 404.648 162.185 403.017L162.185 403.017Z"/>
	<path fill="#71A3FE" transform="scale(0.198125 0.198125)" d="M158.978 398.403C164.415 395.623 160.47 400.081 162.185 403.017L162.185 403.017C159.597 402.017 159.396 401.131 158.978 398.403Z"/>
	<path fill="#93C0FE" transform="scale(0.198125 0.198125)" d="M156.283 313.271C152.709 311.258 146.094 314.341 143.194 311.168L143.538 310.904L143.736 311.614L143.84 310.83C147.009 310.398 149.995 311.839 153.151 311.908C154.06 311.87 154.821 311.726 155.686 311.408L156.072 311.64C156.161 312.189 156.243 312.716 156.283 313.271Z"/>
	<path fill="#93C0FE" transform="scale(0.198125 0.198125)" d="M153.151 384.452C157.899 383.818 159.389 384.159 157.916 388.922C157.097 387.876 155.364 387.751 154.118 387.48C153.888 386.381 153.659 385.458 153.151 384.452Z"/>
	<path fill="#71A3FE" transform="scale(0.198125 0.198125)" d="M187.611 414.987C189.341 414.522 189.333 413.98 191.043 414.987C187.696 416.817 185.646 420.059 182.267 421.924C183.013 419.693 184.175 417.863 185.988 416.35L187.611 414.987Z"/>
	<path fill="#93C0FE" transform="scale(0.198125 0.198125)" d="M157.916 287.559C155.381 285.721 150.611 284.838 149.141 281.958C148.549 280.797 150.097 280.824 150.842 281.01C153.843 281.756 156.394 285.023 157.916 287.559L157.916 287.559Z"/>
	<path fill="#93C0FE" transform="scale(0.198125 0.198125)" d="M161.243 279.717C158.633 277.111 153.033 274.659 152.406 270.906C154.278 267.247 159.494 274.641 160.755 275.958L161.243 276.014L161.243 276.014C161.247 277.248 161.261 278.483 161.243 279.717Z"/>
	<defs>
		<linearGradient id="gradient_2" gradientUnits="userSpaceOnUse" x1="384.95526" y1="388.46576" x2="512.10834" y2="358.77979">
			<stop offset="0" stop-color="#95BBFF"/>
			<stop offset="1" stop-color="#E2F3FD"/>
		</linearGradient>
	</defs>
	<path fill="url(#gradient_2)" transform="scale(0.198125 0.198125)" d="M474.983 281.128L475.218 280.479C478.668 280.939 489.289 277.455 493.602 276.941C495.186 284.524 496.174 291.69 496.562 299.438C497.605 300.138 498.66 300.825 499.689 301.546C498.181 306.787 497.417 313.022 499.689 318.118C498.835 321.859 497.603 324.333 494.988 327.153C502.111 329.157 497.972 334.059 496.562 338.878L497.571 343.021C496.682 345.835 494.094 351.283 494.716 353.88C495.794 358.38 492.113 364.492 488.293 366.847C488.969 367.887 489.702 368.921 490.278 370.021C489.623 371.74 488.991 373.474 488.293 375.176C488.26 376.026 488.179 376.874 488.293 377.718C486.831 380.414 485.548 383.148 484.298 385.945C483.233 386.64 482.06 387.253 481.321 388.31L481.214 389.116C481.727 389.524 482.191 389.737 482.799 389.977C483.697 393.88 475.815 403.551 473.277 406.338C472.292 406.921 470.975 407.458 470.107 408.175C472.117 411.891 468.427 416.11 465.284 418.079C463.061 423.952 456.72 420.754 461.608 423.376C458.497 427.208 455.377 431.301 451.336 434.222L449.564 437.013C445.224 446.093 412.34 468.273 402.612 472.683C403.159 471.84 404.037 471.429 404.705 470.688C404.575 465.344 399.342 461.839 402.612 456.083C401.749 454.884 400.951 454.298 399.691 453.55C400.649 452.793 401.636 452.072 402.612 451.34C406.421 449.008 420.449 439.493 423.327 436.836C423.321 434.755 435.674 426.653 436.357 423.376C437.845 422.662 439.143 421.596 440.69 421.02C441.561 419.438 442.556 416.104 443.925 415.056C446.511 414.92 445.962 413.234 445.811 411.087L448.699 410.029C450.876 404.991 452.628 401.164 457.416 398.403C457.05 394.203 459.98 393.099 461.23 389.645C462.997 384.766 463.789 384.959 464.537 383C466.924 376.749 464.108 376.67 469.702 374.51L468.844 372.513C468.798 371.575 469.338 370.956 469.833 370.21C472.898 365.585 468.347 364.229 474.142 359.024C473.886 352.256 476.43 349.483 476.811 343.838C477.077 339.889 481.578 345.436 476.261 336.833C477.634 335.35 479.134 334.139 480.722 332.897L477.611 328.783C479.104 327.215 480.993 326.048 482.781 324.84C476.123 320.388 478.137 319.664 481.446 313.271C479.847 311.395 478.454 309.601 477.611 307.252C478.802 305.268 480.064 303.401 481.446 301.546C477.177 297.379 476.723 296.204 481.446 292.487C476.114 289.182 476.371 286.746 474.983 281.128Z"/>
	<path fill="#E9F4FC" transform="scale(0.198125 0.198125)" d="M488.293 377.718C485.216 376.844 484.899 375.495 488.293 375.176C488.26 376.026 488.179 376.874 488.293 377.718Z"/>
	<path fill="#C7E0FE" transform="scale(0.198125 0.198125)" d="M447.116 433.226C448.506 433.65 449.914 433.93 451.336 434.222L449.564 437.013C448.51 435.87 447.853 434.581 447.116 433.226Z"/>
	<path fill="#93C0FE" transform="scale(0.198125 0.198125)" d="M399.691 453.55C400.649 452.793 401.636 452.072 402.612 451.34C402.988 452.72 403.38 455.074 402.819 456.408L402.612 456.083C401.749 454.884 400.951 454.298 399.691 453.55Z"/>
	<path fill="#C7E0FE" transform="scale(0.198125 0.198125)" d="M468.815 403.017C469.326 403.323 469.676 403.658 470.107 404.065L473.277 406.338C472.292 406.921 470.975 407.458 470.107 408.175L470.107 408.175C468.138 407.314 466.397 407.54 464.659 405.829L464.673 405.144C465.714 403.877 467.317 403.516 468.815 403.017Z"/>
	<path fill="#E9F4FC" transform="scale(0.198125 0.198125)" d="M470.107 404.065L473.277 406.338C472.292 406.921 470.975 407.458 470.107 408.175L470.107 408.175C469.979 406.749 469.909 405.492 470.107 404.065Z"/>
	<path fill="#E9F4FC" transform="scale(0.198125 0.198125)" d="M340.984 164.524C342.944 164.127 345.931 163.087 343.531 166.013C342.773 165.455 341.804 164.999 340.984 164.524Z"/>
	<path fill="#87B1FE" transform="scale(0.198125 0.198125)" d="M316.379 477.595C318.596 476.772 321.267 475.641 323.163 477.595C321.029 479.596 318.782 477.57 316.379 477.595Z"/>
	<path fill="#87B1FE" transform="scale(0.198125 0.198125)" d="M172.246 264.36C176.576 264.964 185.599 266.942 188.128 270.413L187.611 271.363C186.946 273.618 186.156 275.903 185.671 278.201C185.033 276.677 181.974 277.564 178.939 276.014C176.35 276.389 173.066 275.508 170.478 275.113L169.435 273.653C169.504 270.7 171.218 267.136 172.246 264.36Z"/>
	<path fill="#93C0FE" transform="scale(0.198125 0.198125)" d="M169.435 273.653C172.393 273.122 175.486 273.398 178.033 275.113L178.939 276.014C176.35 276.389 173.066 275.508 170.478 275.113L169.435 273.653Z"/>
	<path fill="#93C0FE" transform="scale(0.198125 0.198125)" d="M178.033 275.113C181.335 275.04 184.848 273.026 187.611 271.363C186.946 273.618 186.156 275.903 185.671 278.201C185.033 276.677 181.974 277.564 178.939 276.014L178.033 275.113Z"/>
	<path fill="#87B1FE" transform="scale(0.198125 0.198125)" d="M374.999 439.55C374.568 440.522 373.551 440.549 373.367 441.189L374.106 441.72C374.617 446.866 375.207 453.56 375.992 458.451C371.251 461.047 357.65 465.578 352.323 465.306L348.512 465.306C348.727 461.553 349.266 454.762 348.512 451.34C348.027 450.737 347.369 450.232 346.794 449.712C356.833 445.985 364.726 444.161 374.999 439.55Z"/>
	<path fill="#C7E0FE" transform="scale(0.198125 0.198125)" d="M348.512 451.34L348.954 450.781C350.167 451.588 351.556 462.928 352.323 465.306L348.512 465.306C348.727 461.553 349.266 454.762 348.512 451.34Z"/>
	<path fill="#87B1FE" transform="scale(0.198125 0.198125)" d="M170.478 275.113C173.066 275.508 176.35 276.389 178.939 276.014C181.974 277.564 185.033 276.677 185.671 278.201C185.098 280.762 184.485 283.321 183.966 285.893C181.342 300.358 180.611 314.936 182.267 329.53L182.267 332.897C181.037 332.699 180.164 332.639 178.939 332.897C177.784 335.224 172.874 336.242 170.478 336.833C169.67 337.543 168.864 338.218 167.997 338.856C168.393 337.617 170.114 337.249 169.611 335.93L168.785 335.391C167.012 335.966 167.715 338.956 167.059 340.455C166.868 338.464 167.377 336.897 167.535 334.966C165.943 333.407 165.84 331.629 165.376 329.53C165.673 326.074 168.629 322.905 165.421 323.374L165.264 322.847L165.881 322.248C165.976 318.394 161.266 317.696 166.096 313.271C165.64 311.715 166.358 310.689 167.059 309.344C165.919 308.247 165.046 306.862 164.271 305.497C165.044 303.394 166.045 301.433 167.059 299.438L165.376 297.12L166.096 293.895C167.214 293.242 168.17 292.779 169.435 292.487C167.95 289.881 164.42 279.432 169.435 279.717C169.903 279.773 170.244 279.746 170.708 279.696L170.605 279.433L169.407 279.35C170.262 277.131 171.372 278.296 170.478 275.113Z"/>
	<path fill="#C7E0FE" transform="scale(0.198125 0.198125)" d="M167.059 309.344C167.995 311.181 167.701 312.033 166.096 313.271C165.64 311.715 166.358 310.689 167.059 309.344Z"/>
	<path fill="#93C0FE" transform="scale(0.198125 0.198125)" d="M178.939 332.897L178.68 332.726L178.613 332.157C179.606 331.039 181.008 330.317 182.267 329.53L182.267 332.897C181.037 332.699 180.164 332.639 178.939 332.897Z"/>
	<path fill="#C7E0FE" transform="scale(0.198125 0.198125)" d="M170.478 275.113C173.066 275.508 176.35 276.389 178.939 276.014C181.974 277.564 185.033 276.677 185.671 278.201C185.098 280.762 184.485 283.321 183.966 285.893C178.126 280.543 176.447 282.006 169.836 279.851L169.435 279.717C169.903 279.773 170.244 279.746 170.708 279.696L170.605 279.433L169.407 279.35C170.262 277.131 171.372 278.296 170.478 275.113Z"/>
	<defs>
		<linearGradient id="gradient_3" gradientUnits="userSpaceOnUse" x1="372.32532" y1="370.08521" x2="473.0701" y2="368.94815">
			<stop offset="0" stop-color="#9ABDFE"/>
			<stop offset="1" stop-color="#D2EBFD"/>
		</linearGradient>
	</defs>
	<path fill="url(#gradient_3)" transform="scale(0.198125 0.198125)" d="M452.657 285.893C457.387 282.728 463.151 281.311 468.815 281.128C469.909 286.647 470.917 291.027 468.815 296.55C470.35 297.374 471.277 298.039 472.312 299.438L470.97 303.724L473.277 307.252C472.01 309.676 470.92 311.975 470.107 314.596C471.555 315.894 472.454 317.114 473.277 318.867C472.94 322.596 471.645 325.404 470.107 328.783C476.784 344.34 467.222 337.468 468.445 346.711C468.976 350.724 465.836 355.118 466.375 360.019L466.451 360.735C465.318 361.834 464.003 362.926 463.065 364.194C463.189 368.7 461.573 370.644 458.312 373.281C459.088 375.322 459.711 377.304 460.21 379.43C455.304 383.282 451.193 394.016 447.552 399.472C443.759 405.156 438.106 410.455 435.221 416.624L433.225 418.079L431.162 421.02L427.885 421.924C426.913 425.196 426.096 424.197 423.921 426.125L423.713 426.682C421.875 431.506 415.166 430.775 412.842 437.779C407.628 438.044 408.378 440.307 404.36 441.805C397.739 447.416 384.031 455.374 375.992 458.451C375.207 453.56 374.617 446.866 374.106 441.72L373.367 441.189C373.551 440.549 374.568 440.522 374.999 439.55L375.392 439.289C377.746 437.759 380.629 436.65 383.15 435.39C401.224 426.354 419.445 406.821 431.302 390.081C440.139 377.604 449.155 355.485 452.677 340.079C454.076 333.956 454.158 323.932 457.416 318.867C450.402 307.593 455.497 309.363 454.677 297.796C454.393 293.794 453.098 289.883 452.657 285.893Z"/>
	<path fill="#71A3FE" transform="scale(0.198125 0.198125)" d="M178.939 332.897C180.164 332.639 181.037 332.699 182.267 332.897L182.462 333.488C183.796 337.6 184.401 341.886 185.376 346.089C193.477 381.005 218.713 416.944 250.216 434.222L252.608 435.479C281.592 451.374 314.441 454.758 346.794 449.712C347.369 450.232 348.027 450.737 348.512 451.34C349.266 454.762 348.727 461.553 348.512 465.306C346.145 467.094 341.421 467.518 338.496 467.585L335.287 467.585C331.299 467.821 327.569 469.407 323.673 469.617C320.699 469.778 317.7 468.23 314.821 468.476C305.934 469.236 309.006 468.06 302.461 467.764C300.512 467.676 298.683 468.438 296.712 467.988C293.116 467.167 290.782 464.761 286.956 465.795C285.613 466.157 272.427 464.674 272.155 459.755L271.823 459.541C269.587 462.93 267.503 460.703 264.186 459.445C258.122 457.146 227.167 443.87 225.715 437.013L222.891 435.479C217.588 434.004 198.053 414.801 198.404 412.074L198.404 410.029C194.174 411.258 191.132 403.231 189.444 400.349C188.859 399 188.306 397.627 187.611 396.331C183.261 394.363 174.085 369.314 172.246 364.194C171.478 362.59 171.019 360.724 170.478 359.024C169.905 356.195 169.046 353.908 167.863 351.291C168.185 349.694 168.051 347.774 167.863 346.169C167.485 344.267 167.258 342.383 167.059 340.455C167.715 338.956 167.012 335.966 168.785 335.391L169.611 335.93C170.114 337.249 168.393 337.617 167.997 338.856C168.864 338.218 169.67 337.543 170.478 336.833C172.874 336.242 177.784 335.224 178.939 332.897Z"/>
	<path fill="#93C0FE" transform="scale(0.198125 0.198125)" d="M222.891 435.479C224.928 433.295 226.088 433.855 225.715 437.013L222.891 435.479Z"/>
	<path fill="#93C0FE" transform="scale(0.198125 0.198125)" d="M335.287 467.585C335.677 466.482 336.281 465.392 336.777 464.328L338.496 467.585L335.287 467.585Z"/>
	<path fill="#87B1FE" transform="scale(0.198125 0.198125)" d="M250.216 434.222L252.608 435.479C249.761 438.665 248.923 438.118 250.216 434.222Z"/>
	<path fill="#93C0FE" transform="scale(0.198125 0.198125)" d="M170.478 359.024C173.94 360.066 173.793 361.133 172.246 364.194C171.478 362.59 171.019 360.724 170.478 359.024Z"/>
	<path fill="#93C0FE" transform="scale(0.198125 0.198125)" d="M187.611 396.331L189.444 396.331C190.32 397.031 191.194 397.731 192.092 398.403C191.239 399.188 190.519 399.89 189.444 400.349C188.859 399 188.306 397.627 187.611 396.331Z"/>
	<path fill="#87B1FE" transform="scale(0.198125 0.198125)" d="M189.444 396.331C190.48 395.731 191.457 394.986 192.696 395.05L193.123 395.383C193.235 396.508 192.692 397.485 192.092 398.403C191.194 397.731 190.32 397.031 189.444 396.331Z"/>
	<path fill="#93C0FE" transform="scale(0.198125 0.198125)" d="M167.863 346.169C168.984 346.597 169.967 346.572 171.158 346.544L171.461 346.831C170.546 348.619 168.773 349.619 167.863 351.291C168.185 349.694 168.051 347.774 167.863 346.169Z"/>
	<path fill="#87B1FE" transform="scale(0.198125 0.198125)" d="M198.404 410.029C200.985 407.901 203.069 404.404 205.716 402.746L206.178 403.03C206.149 405.988 200.779 410.797 198.404 412.074L198.404 410.029Z"/>
	<defs>
		<linearGradient id="gradient_4" gradientUnits="userSpaceOnUse" x1="298.77747" y1="314.30652" x2="363.96112" y2="169.52795">
			<stop offset="0" stop-color="#BAD9FE"/>
			<stop offset="1" stop-color="#DCEEFD"/>
		</linearGradient>
	</defs>
	<path fill="url(#gradient_4)" transform="scale(0.198125 0.198125)" d="M317.369 162.619L319.306 164.524C322.518 165.287 324.913 165.012 328.131 164.524C332.762 165.206 336.353 165.468 340.984 164.524C341.804 164.999 342.773 165.455 343.531 166.013C344.994 167.095 366.412 170.737 373.729 173.487C374.489 174.365 375.254 175.239 375.992 176.136C390.778 178.896 408.01 192.297 419.447 201.804C422.484 204.328 426.091 204.635 425.993 209.15C426.894 210.407 431.307 212.765 433.225 214.797C432.529 215.592 431.798 216.375 431.162 217.218C434.426 217.949 436.065 218.868 438.571 221.098C434.258 225.434 442.245 222.975 442.494 228.406C444.445 230.189 453.605 243.118 455.411 246.387C454.542 247.597 453.383 248.903 452.928 250.327L453.217 250.679C460.177 250.379 464.262 270.56 466.451 276.014C461.798 278.599 456.603 280.853 451.336 281.789L451.122 281.321C447.205 272.66 444.953 263.382 440.484 254.91C424.705 225.005 393.882 201.227 362.463 189.128C330.307 176.744 292.378 178.935 261.048 192.748C252.863 196.357 245.513 201.575 237.458 205.507C235.111 203.813 230.567 199.776 228.036 203.109C228.565 205.245 231.191 203.419 233.572 207.938C232.881 210.656 224.233 216.135 221.893 218.07C211.904 226.326 195.369 247.171 193.57 260.96C186.653 259.287 180.824 259.975 174.005 259.198C175.351 255.666 180.341 248.706 180.099 247.149C179.531 243.493 183.734 239.099 186.631 237.391C186.652 236.253 186.735 235.084 186.631 233.95C189.473 231.166 192.931 226.127 194.719 222.565C195.944 222.067 197.165 221.56 198.404 221.098C199.209 217.507 202.251 214.754 203.891 211.434C207.017 209.738 220.013 197.563 221.42 195.331C225.952 193.878 234.161 184.935 235.268 184.922C236.166 184.911 237.038 186.076 238.295 186.066C239.629 185.264 240.354 183.498 241.313 182.267C242.93 180.564 243.907 179.659 246.427 179.766C247.021 179.036 262.654 172.332 264.419 171.802C270.439 169.994 267.027 170.561 270.583 168.929C275.639 170.661 279.193 166.881 284.186 166.045C286.145 165.717 288.344 166.753 290.423 166.613C294.712 166.324 299.968 163.947 304.178 162.619C312.351 170.991 306.842 163.45 317.369 162.619Z"/>
	<path fill="#E9F4FC" transform="scale(0.198125 0.198125)" d="M241.313 182.267C242.93 180.564 243.907 179.659 246.427 179.766C245.908 182.779 244.036 182.672 241.313 182.267Z"/>
	<defs>
		<linearGradient id="gradient_5" gradientUnits="userSpaceOnUse" x1="278.53601" y1="335.2023" x2="384.9075" y2="147.79332">
			<stop offset="0" stop-color="#AACEFE"/>
			<stop offset="1" stop-color="#F1FAFC"/>
		</linearGradient>
	</defs>
	<path fill="url(#gradient_5)" transform="scale(0.198125 0.198125)" d="M314.172 136.875C322.41 136.545 330.233 138.136 338.496 136.875C347.279 142.553 345.6 139.306 355.312 140.477C370.947 142.361 402.592 156.214 415.423 165.17C417.989 166.961 425.43 172.861 428.183 175.043C431.248 177.472 433.767 181.073 437.662 184.196C438.496 184.865 453.364 198.212 453.378 198.29C454.513 204.547 453.818 200.718 459.041 205.898C469.388 216.161 472.423 228.628 479.569 236.906C482.773 240.618 479.699 239.927 480.321 242.686L480.773 242.841C486.568 244.88 490.706 265.115 492.809 271.363L492.809 271.363C492.891 273.249 493.266 275.088 493.602 276.941C489.289 277.455 478.668 280.939 475.218 280.479L474.983 281.128C474.68 279.494 475.323 277.86 474.983 276.014C474.142 274.318 471.223 266.17 470.484 263.742C469.556 260.694 473.568 261.308 467.815 257.654C467.288 254.63 464.499 251.652 466.555 248.989C466.627 247.513 464.161 247.087 463.397 245.774C458.563 237.461 454.681 228.657 449.111 220.759C447.177 218.018 443.919 216.216 441.863 213.547C440.816 212.188 440.855 210.102 439.53 208.964C433.879 204.106 428.781 198.599 423.065 193.881C398.549 173.646 367.755 158.591 335.614 157.003C327.851 156.62 330.125 158.505 321.858 155.265C315.862 156.653 313.952 155.377 308.911 155.903C303.128 156.507 299.887 158.977 294.428 156.132C289.081 158.066 284.155 159.357 278.623 160.688C264.331 164.128 223.775 179.975 215.878 192.875C209.743 195.292 206.899 202.297 201.296 205.507C199.493 209.434 196.069 211.197 193.484 214.459C186.126 223.744 182.389 230.229 176.937 240.341C173.959 245.863 170.051 254.642 167.059 259.198C166.716 260.52 166.267 261.886 166.096 263.241C164.7 266.372 162.123 272.825 161.243 276.014L161.243 276.014C160.979 273.997 162.605 272.467 162.742 270.553C162.835 269.24 153.387 264.425 149.859 260.96C150.64 260.866 149 258.125 148.778 257.654L150.533 254.998C151.091 254.845 151.637 254.677 152.185 254.489L152.317 253.798C151.53 251.86 151.309 251.002 153.151 249.729C153.686 247.66 154.123 245.504 155.395 243.749C158.326 237.118 156.955 240.452 159.741 236.974C158.817 234.409 159.07 233.703 161.243 232.052L161.243 228.406C163.606 226.133 163.481 223.216 167.059 222.565C167.228 220.772 167.569 218.994 167.863 217.218C169.166 216.196 170.637 215.23 172.246 214.797C172.044 211.4 171.932 210.839 175.275 209.754C175.113 201.775 178.4 209.245 178.507 202.001C179.128 201.07 180.665 200.948 181.713 200.517C185.084 199.131 183.212 197.565 184.395 195.327C185.479 193.277 187.672 196.572 187.509 191.77C188.19 190.6 189.589 190.698 190.62 189.788C190.877 185.61 194.757 188.099 195.028 184.041C196.917 181.824 199.405 183.852 199.732 179.766C201.039 178.29 201.959 176.747 202.924 175.04C208.053 174.699 204.724 171.633 211.28 170.703L212.52 167.002L215.878 167.002C216.643 165.469 217.325 163.919 218.459 162.619L222.891 162.619C223.863 161.493 224.781 160.316 225.715 159.16C226.59 158.968 227.911 159.155 228.834 159.16L229.882 156.132C231.605 156.035 233.322 156.089 235.045 156.132C239.527 153.312 239.226 151.264 245.489 151.943C249.789 149.485 253.973 148.011 258.502 146.15L262.399 146.15C266.335 144.152 270.121 141.972 274.294 140.469L276.535 143.607C286.797 135.853 301.596 138.456 313.577 136.953L314.172 136.875Z"/>
	<path fill="#93C0FE" transform="scale(0.198125 0.198125)" d="M166.096 263.241L165.704 262.992C163.074 261.351 163.687 258.976 167.059 259.198C166.716 260.52 166.267 261.886 166.096 263.241Z"/>
	<path fill="#C7E0FE" transform="scale(0.198125 0.198125)" d="M153.151 249.729C153.686 247.66 154.123 245.504 155.395 243.749C156.681 246.423 156.978 249.348 153.151 249.729Z"/>
	<path fill="#E9F4FC" transform="scale(0.198125 0.198125)" d="M492.809 271.363L492.809 271.363C492.891 273.249 493.266 275.088 493.602 276.941C489.289 277.455 478.668 280.939 475.218 280.479L474.983 281.128C474.68 279.494 475.323 277.86 474.983 276.014C475.355 276.502 475.631 277.037 475.911 277.58C477.241 277.84 492.24 274.072 492.809 271.363Z"/>
	<defs>
		<linearGradient id="gradient_6" gradientUnits="userSpaceOnUse" x1="415.20599" y1="303.01416" x2="264.73553" y2="313.4614">
			<stop offset="0" stop-color="#2B99FF"/>
			<stop offset="1" stop-color="#85A6FF"/>
		</linearGradient>
	</defs>
	<path fill="url(#gradient_6)" transform="scale(0.198125 0.198125)" d="M256.977 213.129C270.29 211.762 286.872 213.884 301.006 213.129C300.427 242.588 303.726 257.987 311.306 285.078C316.793 304.688 324.717 331.682 328.131 351.291C334.407 337.581 340.909 312.596 345.412 297.725L359.214 251.838C362.868 239.581 366.615 227.248 369.559 214.797C377.358 214.783 387.274 214.234 394.84 214.797C393.012 218.473 391.951 222.596 390.722 226.504L385.529 242.878C378.038 266.249 370.637 289.685 363.846 313.271C358.499 329.828 349.41 359.632 346.794 376.575C370.25 376.836 398.725 374.85 421.537 376.575C418.001 385.418 415.186 394.84 412.842 404.065L411.72 404.17C402.121 405.152 386.244 404.061 376.08 404.056L293.327 404.065C289.495 350.468 281.498 306.344 268.049 253.718C264.589 240.178 261.848 226.245 256.977 213.129Z"/>
</svg>
