<?xml version="1.0" standalone="no"?>
<!DOCTYPE svg PUBLIC "-//W3C//DTD SVG 20010904//EN"
 "http://www.w3.org/TR/2001/REC-SVG-20010904/DTD/svg10.dtd">
<svg version="1.0" xmlns="http://www.w3.org/2000/svg"
 width="500.000000pt" height="215.000000pt" viewBox="0 0 500.000000 215.000000"
 preserveAspectRatio="xMidYMid meet">

<g transform="translate(0.000000,215.000000) scale(0.100000,-0.100000)"
fill="#000000" stroke="none">
<path d="M675 2051 c-240 -29 -444 -212 -512 -461 -16 -58 -18 -114 -18 -520
0 -404 2 -462 18 -520 49 -180 166 -324 333 -408 23 -12 78 -31 122 -42 77
-20 99 -21 728 -18 l649 3 65 24 c262 98 429 332 430 604 l0 67 -179 0 c-165
0 -180 -2 -205 -21 -14 -11 -26 -31 -26 -43 0 -12 -7 -45 -15 -73 -18 -60 -85
-126 -144 -143 -22 -6 -255 -10 -611 -10 -557 0 -576 1 -620 21 -56 25 -86 53
-111 101 -18 35 -19 64 -19 458 0 394 1 423 19 458 22 43 52 72 101 98 33 18
69 19 640 19 677 0 632 5 702 -73 27 -30 39 -55 48 -98 22 -112 25 -114 248
-114 l172 0 0 68 c-1 279 -180 520 -450 608 -50 16 -111 18 -680 20 -344 1
-652 -1 -685 -5z"/>
<path d="M1036 1454 c-23 -24 -26 -35 -26 -93 0 -36 -1 -192 -3 -347 -2 -302
0 -320 50 -343 13 -6 35 -11 50 -11 14 0 121 56 252 132 384 223 381 221 381
278 0 48 -23 72 -137 135 -48 27 -99 57 -113 66 -14 9 -100 60 -191 113 -187
107 -217 115 -263 70z"/>
<path d="M2540 1030 l0 -180 40 0 40 0 0 180 0 180 -40 0 -40 0 0 -180z"/>
<path d="M2680 1030 l0 -180 40 0 39 0 3 113 3 112 74 -112 c72 -112 73 -113
112 -113 l39 0 0 180 0 180 -40 0 -40 0 0 -112 0 -113 -73 112 -72 113 -42 0
-43 0 0 -180z"/>
<path d="M3060 1030 l0 -180 100 0 100 0 0 35 0 35 -60 0 -60 0 0 40 0 40 60
0 60 0 0 35 0 35 -60 0 -60 0 0 40 0 40 60 0 60 0 0 30 0 30 -100 0 -100 0 0
-180z"/>
<path d="M3336 1188 c-7 -32 -26 -258 -26 -302 0 -34 2 -36 34 -36 40 0 46 11
47 83 0 29 4 72 8 97 l7 45 38 -112 c34 -101 40 -113 61 -113 21 0 27 12 61
113 l38 112 7 -45 c4 -25 8 -65 8 -90 2 -78 9 -90 50 -90 l36 0 -15 178 -15
177 -45 3 -45 3 -34 -93 c-19 -51 -37 -97 -42 -102 -4 -4 -24 37 -46 93 l-38
101 -42 0 c-36 0 -43 -3 -47 -22z"/>
<path d="M3851 1188 c-5 -13 -36 -92 -70 -176 -34 -84 -61 -155 -61 -158 0 -3
19 -4 42 -2 37 3 42 6 53 38 l12 35 70 3 70 3 17 -41 c15 -38 18 -40 57 -40
35 0 40 3 35 18 -4 9 -36 90 -73 180 l-66 162 -39 0 c-31 0 -40 -5 -47 -22z
m72 -137 c9 -27 17 -51 17 -55 0 -3 -18 -6 -40 -6 -22 0 -40 3 -40 8 0 14 34
102 40 102 3 0 13 -22 23 -49z"/>
<path d="M2917 662 c-27 -29 -20 -50 24 -77 22 -15 39 -31 36 -38 -5 -15 -47
-22 -47 -8 0 6 -7 11 -15 11 -22 0 -18 -28 6 -40 30 -17 62 -8 76 19 15 31 3
55 -37 76 -17 9 -30 20 -30 26 0 15 33 24 38 11 4 -14 32 -16 32 -3 0 16 -30
41 -49 41 -10 0 -25 -8 -34 -18z"/>
<path d="M3100 620 c16 -33 30 -73 30 -90 0 -20 5 -30 15 -30 11 0 15 11 15
35 0 20 11 58 25 85 29 57 29 60 12 60 -7 0 -22 -19 -34 -42 l-20 -43 -22 43
c-12 23 -28 42 -36 42 -12 0 -8 -14 15 -60z"/>
<path d="M3290 591 c0 -74 3 -91 15 -91 12 0 15 14 15 68 l1 67 37 -67 c24
-44 43 -68 55 -68 15 0 17 11 17 90 0 73 -3 90 -15 90 -12 0 -15 -14 -15 -67
l0 -68 -38 65 c-21 36 -46 66 -55 68 -15 3 -17 -7 -17 -87z"/>
<path d="M3539 651 c-20 -20 -29 -39 -29 -61 0 -22 9 -41 29 -61 37 -37 79
-38 118 -4 27 23 27 24 6 25 -12 0 -25 -4 -28 -10 -10 -17 -61 -11 -78 8 -22
24 -21 65 1 85 20 19 67 23 77 7 3 -5 16 -10 28 -10 21 1 21 2 -6 25 -39 34
-81 33 -118 -4z"/>
<path d="M2650 570 c0 -5 14 -10 30 -10 17 0 30 5 30 10 0 6 -13 10 -30 10
-16 0 -30 -4 -30 -10z"/>
<path d="M3870 570 c0 -5 14 -10 30 -10 17 0 30 5 30 10 0 6 -13 10 -30 10
-16 0 -30 -4 -30 -10z"/>
</g>
</svg>
