<?xml version="1.0" standalone="no"?>
<!DOCTYPE svg PUBLIC "-//W3C//DTD SVG 20010904//EN"
 "http://www.w3.org/TR/2001/REC-SVG-20010904/DTD/svg10.dtd">
<svg version="1.0" xmlns="http://www.w3.org/2000/svg"
 width="200.000000pt" height="200.000000pt" viewBox="0 0 200.000000 200.000000"
 preserveAspectRatio="xMidYMid meet">

<g transform="translate(0.000000,200.000000) scale(0.100000,-0.100000)"
fill="#000000" stroke="none">
<path d="M875 1490 c-7 -23 7 -54 37 -74 20 -14 20 -16 4 -40 -31 -48 -218
-268 -322 -380 -115 -123 -125 -148 -78 -185 21 -16 41 -21 90 -21 l63 0 3
-92 3 -93 125 0 125 0 0 25 c0 25 -1 25 -92 28 l-93 3 0 84 c0 118 2 115 -92
115 l-79 0 120 133 c107 118 245 282 287 341 15 21 15 21 47 -19 97 -120 209
-252 293 -342 52 -56 94 -104 94 -107 0 -3 -33 -6 -73 -6 -43 0 -78 -5 -85
-12 -8 -8 -12 -45 -12 -100 l0 -88 -94 0 c-97 0 -108 -5 -98 -43 4 -16 17 -17
131 -15 l126 3 3 93 3 92 68 0 c82 0 114 19 114 67 0 25 -18 51 -101 140 -122
131 -332 382 -332 396 0 6 15 26 32 44 26 27 30 37 22 51 -19 29 -44 26 -83
-12 l-37 -36 -34 35 c-38 39 -75 46 -85 15z"/>
<path d="M860 910 c0 -159 0 -160 23 -159 14 0 35 17 61 51 l38 50 52 -51 c53
-52 82 -63 93 -35 4 10 -13 35 -51 73 l-57 58 56 72 c57 72 64 101 27 101 -12
0 -50 -39 -103 -106 l-84 -106 -3 106 c-3 105 -3 106 -27 106 l-25 0 0 -160z"/>
</g>
</svg>
