<?xml version="1.0" standalone="no"?>
<!DOCTYPE svg PUBLIC "-//W3C//DTD SVG 20010904//EN"
 "http://www.w3.org/TR/2001/REC-SVG-20010904/DTD/svg10.dtd">
<svg version="1.0" xmlns="http://www.w3.org/2000/svg"
 width="500.000000pt" height="500.000000pt" viewBox="0 0 500.000000 500.000000"
 preserveAspectRatio="xMidYMid meet">

<g transform="translate(0.000000,500.000000) scale(0.100000,-0.100000)"
fill="#000000" stroke="none">
<path d="M1730 3947 l0 -894 302 -6 c166 -4 348 -7 405 -7 l103 0 0 63 0 64
-107 27 c-316 80 -481 207 -547 421 -22 69 -40 235 -34 309 10 114 43 148 165
166 88 13 1274 13 1373 0 132 -17 162 -49 176 -184 l7 -66 62 0 c42 0 64 4 66
13 2 6 3 231 1 500 l-2 487 -64 0 -63 0 -7 -66 c-9 -87 -32 -141 -67 -159 -58
-31 -215 -36 -854 -32 -452 2 -640 7 -666 15 -79 26 -99 59 -114 185 l-6 57
-65 0 -64 0 0 -893z"/>
<path d="M906 4566 c-46 -17 -99 -66 -121 -112 -32 -68 -10 -180 46 -231 60
-55 161 -68 235 -32 46 22 98 89 109 141 33 147 -127 286 -269 234z"/>
<path d="M4025 4285 c-43 -19 -101 -86 -115 -133 -25 -81 13 -176 93 -236 43
-32 158 -30 211 3 128 80 129 262 2 349 -41 27 -57 32 -105 31 -31 0 -69 -7
-86 -14z"/>
<path d="M500 3956 c0 -71 5 -76 86 -76 50 0 102 -20 131 -52 18 -18 24 -43
32 -127 13 -124 14 -1183 2 -1321 -14 -153 -33 -176 -165 -194 l-81 -12 -3
-67 -3 -67 890 0 c489 0 892 3 894 8 10 14 20 802 11 804 -34 5 -115 4 -119
-2 -3 -5 -16 -51 -30 -103 -29 -111 -74 -231 -117 -304 -102 -181 -285 -272
-551 -274 -109 -1 -157 11 -189 47 -40 46 -41 74 -44 794 -4 808 -4 804 80
847 16 8 61 18 100 22 l71 6 3 68 3 67 -501 0 -500 0 0 -64z"/>
<path d="M2706 3225 c-4 -218 -4 -400 -1 -405 9 -15 111 -12 122 3 5 6 15 39
23 72 7 33 26 98 42 145 116 331 281 452 618 454 195 1 221 -17 240 -164 17
-130 9 -1393 -9 -1440 -28 -72 -61 -91 -183 -105 l-58 -6 0 -65 0 -64 503 2
502 3 0 60 0 60 -85 13 c-95 14 -122 28 -147 75 -17 30 -18 83 -18 778 0 619
2 750 14 772 19 35 68 57 155 69 39 5 72 10 73 11 2 3 6 89 4 110 -1 16 -51
17 -894 17 l-894 0 -7 -395z"/>
<path d="M2467 2623 c-4 -3 -7 -32 -7 -64 0 -46 3 -59 18 -63 9 -2 49 -12 87
-21 144 -34 290 -97 370 -159 143 -111 206 -263 209 -501 2 -185 -20 -218
-153 -236 -113 -16 -1418 -7 -1456 9 -67 29 -86 64 -100 185 l-6 57 -65 0 -64
0 0 -499 c0 -390 3 -500 13 -504 6 -2 34 -4 62 -3 l50 1 7 40 c4 22 10 61 13
87 9 67 42 104 108 118 37 8 256 10 762 7 391 -2 716 -6 724 -7 7 -2 28 -18
47 -36 27 -27 34 -43 39 -91 3 -32 9 -71 13 -88 8 -29 9 -30 67 -30 l60 0 3
893 c2 709 0 893 -10 896 -24 8 -784 16 -791 9z"/>
<path d="M900 1709 c-43 -18 -90 -59 -110 -99 -52 -102 2 -251 103 -289 49
-19 130 -13 178 12 59 31 109 112 109 177 0 46 -24 108 -57 147 -46 54 -154
79 -223 52z"/>
<path d="M3625 1377 c-59 -28 -77 -47 -104 -107 -37 -80 -21 -161 44 -226 112
-112 291 -64 346 94 20 57 -10 162 -57 203 -65 57 -156 71 -229 36z"/>
<path d="M1095 668 c-3 -8 -4 -90 -3 -183 l3 -170 35 0 35 0 0 180 0 180 -33
3 c-20 2 -34 -2 -37 -10z"/>
<path d="M1562 498 l3 -183 33 -3 32 -3 0 185 0 186 -35 0 -35 0 2 -182z"/>
<path d="M1680 645 l0 -36 128 3 127 3 3 33 3 32 -130 0 -131 0 0 -35z"/>
<path d="M2047 673 c-2 -4 -4 -87 -3 -183 l1 -175 35 0 35 0 0 180 0 180 -32
3 c-17 2 -33 -1 -36 -5z"/>
<path d="M2520 496 l0 -186 35 0 35 0 -2 183 -3 182 -32 3 -33 3 0 -185z"/>
<path d="M3135 661 c-14 -44 1 -51 106 -51 l99 0 0 35 0 35 -99 0 c-88 0 -100
-2 -106 -19z"/>
<path d="M3564 666 c-3 -8 -4 -23 -2 -33 3 -16 16 -18 111 -21 l107 -3 0 36 0
35 -105 0 c-83 0 -107 -3 -111 -14z"/>
<path d="M3728 521 l-158 -158 25 -23 26 -24 157 157 157 157 -25 25 -25 24
-157 -158z"/>
<path d="M2169 648 c-9 -21 -2 -32 67 -101 l76 -79 24 23 25 23 -78 78 c-43
43 -83 78 -90 78 -8 0 -18 -10 -24 -22z"/>
<path d="M2383 633 l-32 -38 21 -23 22 -23 40 40 c39 39 40 41 21 61 -25 28
-35 25 -72 -17z"/>
<path d="M3022 498 l3 -113 33 -3 33 -3 -3 113 -3 113 -33 3 -33 3 3 -113z"/>
<path d="M3390 494 l0 -115 33 3 32 3 3 113 3 112 -36 0 -35 0 0 -116z"/>
<path d="M1680 500 l0 -30 66 0 65 0 -3 28 c-3 26 -6 27 -65 30 l-63 3 0 -31z"/>
<path d="M2690 500 l0 -30 110 0 110 0 0 30 0 30 -110 0 -110 0 0 -30z"/>
<path d="M1210 345 l0 -35 130 0 130 0 0 35 0 35 -130 0 -130 0 0 -35z"/>
<path d="M1680 345 l0 -35 130 0 130 0 0 35 0 35 -130 0 -130 0 0 -35z"/>
<path d="M3136 372 c-3 -5 -3 -17 -1 -28 2 -10 4 -22 4 -26 1 -5 46 -8 101 -8
l100 0 0 35 0 35 -99 0 c-55 0 -102 -4 -105 -8z"/>
</g>
</svg>
